<svg xmlns="http://www.w3.org/2000/svg" viewBox="0 0 1600 900" role="img" aria-label="Browse-it demo screenshot 2">
  <defs>
    <linearGradient id="bg2" x1="0" y1="0" x2="1" y2="1">
      <stop offset="0%" stop-color="#08101c"/>
      <stop offset="100%" stop-color="#101b30"/>
    </linearGradient>
    <linearGradient id="accent2" x1="0" y1="0" x2="1" y2="0">
      <stop offset="0%" stop-color="#8f7bff"/>
      <stop offset="100%" stop-color="#77d7ff"/>
    </linearGradient>
  </defs>
  <rect width="1600" height="900" rx="32" fill="url(#bg2)"/>
  <rect x="18" y="18" width="1564" height="864" rx="26" fill="#0d172a" stroke="rgba(255,255,255,0.08)"/>
  <rect x="40" y="40" width="1520" height="64" rx="18" fill="#121f38" stroke="rgba(255,255,255,0.08)"/>
  <circle cx="78" cy="72" r="10" fill="#ff5f57"/>
  <circle cx="110" cy="72" r="10" fill="#febc2e"/>
  <circle cx="142" cy="72" r="10" fill="#28c840"/>
  <text x="190" y="80" fill="#f4f7fb" font-family="Space Grotesk, Arial, sans-serif" font-size="26" font-weight="700">Browse-it Product View</text>
  <rect x="40" y="132" width="1520" height="702" rx="24" fill="#09111f" stroke="rgba(255,255,255,0.07)"/>
  <rect x="68" y="162" width="1484" height="98" rx="22" fill="#101b31"/>
  <text x="100" y="204" fill="#77d7ff" font-family="Space Grotesk, Arial, sans-serif" font-size="22" font-weight="700">Agent mode</text>
  <rect x="258" y="184" width="180" height="40" rx="20" fill="rgba(245,196,81,0.16)"/>
  <text x="294" y="210" fill="#f5c451" font-family="Space Grotesk, Arial, sans-serif" font-size="18" font-weight="700">Browser Agent</text>
  <rect x="458" y="184" width="160" height="40" rx="20" fill="rgba(255,255,255,0.06)"/>
  <text x="496" y="210" fill="rgba(244,247,251,0.72)" font-family="Space Grotesk, Arial, sans-serif" font-size="18" font-weight="700">Research</text>
  <rect x="68" y="282" width="470" height="520" rx="22" fill="#101b31" stroke="rgba(255,255,255,0.08)"/>
  <text x="102" y="332" fill="#f4f7fb" font-family="Fraunces, Georgia, serif" font-size="42" font-weight="700">Your AI Browser</text>
  <text x="102" y="382" fill="rgba(244,247,251,0.68)" font-family="Space Grotesk, Arial, sans-serif" font-size="22">Describe a task, then watch it run.</text>
  <rect x="102" y="440" width="390" height="74" rx="20" fill="#182740"/>
  <rect x="102" y="534" width="390" height="74" rx="20" fill="#182740"/>
  <rect x="102" y="628" width="390" height="74" rx="20" fill="#182740"/>
  <rect x="584" y="282" width="900" height="520" rx="22" fill="#0b1526" stroke="rgba(255,255,255,0.08)"/>
  <rect x="618" y="318" width="832" height="52" rx="999" fill="#121f38"/>
  <text x="652" y="350" fill="rgba(244,247,251,0.72)" font-family="Space Grotesk, Arial, sans-serif" font-size="18">Task input: Search, extract, fill forms, compare, or research</text>
  <rect x="618" y="398" width="832" height="74" rx="20" fill="#101b31"/>
  <rect x="618" y="492" width="832" height="74" rx="20" fill="#101b31"/>
  <rect x="618" y="586" width="832" height="74" rx="20" fill="#101b31"/>
  <rect x="618" y="680" width="832" height="74" rx="20" fill="#101b31"/>
  <rect x="618" y="774" width="832" height="20" rx="10" fill="url(#accent2)"/>
  <text x="652" y="444" fill="#f4f7fb" font-family="Space Grotesk, Arial, sans-serif" font-size="24" font-weight="700">Live browser view</text>
  <text x="652" y="538" fill="#f4f7fb" font-family="Space Grotesk, Arial, sans-serif" font-size="24" font-weight="700">Plan</text>
  <text x="652" y="632" fill="#f4f7fb" font-family="Space Grotesk, Arial, sans-serif" font-size="24" font-weight="700">Step timeline</text>
  <text x="652" y="726" fill="#f4f7fb" font-family="Space Grotesk, Arial, sans-serif" font-size="24" font-weight="700">Result output</text>
</svg>